<svg width="500" height="69" viewBox="0 0 500 69" fill="none" xmlns="http://www.w3.org/2000/svg">
<g clip-path="url(#clip0_7_16026)">
<path d="M494.417 18.9375C492.209 18.9375 490.396 17.1458 490.396 14.9375C490.396 12.7292 492.209 10.9167 494.417 10.9167C496.625 10.9167 498.438 12.7292 498.438 14.9375C498.438 17.1458 496.625 18.9375 494.417 18.9375ZM494.417 9.9375C491.667 9.9375 489.417 12.1875 489.417 14.9375C489.417 17.6875 491.667 19.9375 494.417 19.9375C497.167 19.9375 499.417 17.6875 499.417 14.9375C499.417 12.1875 497.167 9.9375 494.417 9.9375Z" fill="black"/>
<path d="M494.75 14.7292L493.687 14.75L493.666 13.4583H494.729C495.125 13.4375 495.437 13.6875 495.437 14.0833C495.458 14.4792 495.145 14.7292 494.75 14.7292ZM496.479 14.0625C496.458 13.1875 495.854 12.5625 494.875 12.5625L492.646 12.6042L492.708 17.3125H493.729L493.708 15.625H494.437L495.395 17.2917L496.541 17.2708L495.458 15.4792C495.958 15.3542 496.479 14.8958 496.479 14.0625Z" fill="black"/>
<path d="M107.988 48.2927H95.4899V19.4719H107.646C110.925 19.4719 112.973 21.5885 112.973 24.4573C112.973 27.326 110.925 29.374 107.646 29.374H93.7501V37.7073H107.988C111.813 37.7073 113.861 40.1656 113.861 43.0323C113.861 46.3115 111.675 48.2927 107.988 48.2927ZM115.021 33.199C119.325 32.3115 122.877 28.4865 122.877 22.751C122.877 16.6719 118.438 11.1406 109.763 11.1406H85.792V56.6927H110.515C119.188 56.6927 123.763 51.2281 123.763 44.399C123.763 38.6615 119.871 33.951 115.021 33.199Z" fill="black"/>
<path d="M152.151 31.9693H141.667V40.5068H149.078L158.024 56.6922H169.156L158.912 39.3443C163.831 38.1839 168.883 33.8818 168.883 25.8235M168.883 25.8235C168.883 17.3547 163.078 11.1401 153.585 11.1401H132.276V56.6922H141.974V19.6776H152.151C156.045 19.6776 158.981 21.9985 158.981 25.8235C158.981 29.6485 156.045 31.9693 152.151 31.9693" fill="black"/>
<path d="M242.61 40.4385L249.713 20.8385L256.817 40.4385H242.61ZM243.635 11.1406L226.015 56.6927H237.077L239.946 48.976H259.479L262.279 56.6927H273.344L255.792 11.1406H243.635Z" fill="black"/>
<path d="M299.685 48.1552H291.421V19.676H299.685C309.041 19.676 313.958 25.8906 313.958 33.951C313.958 41.6677 308.7 48.1552 299.685 48.1552ZM299.685 11.1406H281.723V56.6927H299.685C313.958 56.6927 323.86 47.6781 323.86 33.951C323.86 20.224 313.958 11.1406 299.685 11.1406Z" fill="black"/>
<path d="M470.783 11.1313L458.838 30.4438L446.892 11.1313H436.171V56.6918H445.871V26.9147L456.313 42.7938C457.508 44.6084 460.169 44.6084 461.363 42.7938L471.806 26.9147V56.6918H481.506V11.1313H470.783Z" fill="black"/>
<path d="M199.636 48.6338C191.571 48.6338 185.036 42.0963 185.036 34.0338C185.036 25.9692 191.571 19.4317 199.636 19.4317C207.698 19.4317 214.236 25.9692 214.236 34.0338C214.236 42.0963 207.698 48.6338 199.636 48.6338ZM199.636 10.0171C186.371 10.0171 175.619 20.7692 175.619 34.0338C175.619 47.2963 186.371 58.0483 199.636 58.0483C212.898 58.0483 223.652 47.2963 223.652 34.0338C223.652 20.7692 212.898 10.0171 199.636 10.0171Z" fill="black"/>
<path d="M367.507 41.0979C365.018 45.5895 360.232 48.6333 354.732 48.6333C346.67 48.6333 340.132 42.0958 340.132 34.0333C340.132 25.9687 346.67 19.4333 354.732 19.4333C360.187 19.4333 364.934 22.4291 367.441 26.8604L374.253 20.0499C369.895 13.977 362.778 10.0166 354.732 10.0166C341.468 10.0166 330.718 20.7687 330.718 34.0333C330.718 47.2958 341.468 58.0499 354.732 58.0499C362.822 58.0499 369.974 54.0458 374.324 47.9145L367.507 41.0979Z" fill="black"/>
<path d="M405.299 48.6338C397.234 48.6338 390.699 42.0963 390.699 34.0338C390.699 25.9692 397.234 19.4317 405.299 19.4317C413.361 19.4317 419.899 25.9692 419.899 34.0338C419.899 42.0963 413.361 48.6338 405.299 48.6338ZM405.299 10.0171C392.034 10.0171 381.282 20.7692 381.282 34.0338C381.282 47.2963 392.034 58.0483 405.299 58.0483C418.561 58.0483 429.316 47.2963 429.316 34.0338C429.316 20.7692 418.561 10.0171 405.299 10.0171Z" fill="black"/>
<path d="M34.4155 68.1927C53.0969 68.1927 68.2412 53.0494 68.2412 34.3691C68.2412 15.6888 53.0969 0.54541 34.4155 0.54541C15.7341 0.54541 0.589844 15.6888 0.589844 34.3691C0.589844 53.0494 15.7341 68.1927 34.4155 68.1927Z" fill="#CC092F"/>
<path d="M64.2197 43.5067C60.351 41.9651 56.8093 42.4817 53.2593 44.6338C53.2593 44.6338 51.9655 45.4234 51.578 45.6672C49.9239 46.7047 48.3635 47.688 46.8635 47.688C45.4322 47.688 44.0239 47.3047 43.4281 44.5359C42.4989 40.2172 40.2322 29.6047 39.2426 24.3484C38.6614 21.2588 38.3426 19.5942 38.0114 18.463C37.4281 16.4755 36.3614 15.3942 34.8468 15.2213C34.8468 15.2213 34.6093 15.188 34.4156 15.188C34.2239 15.188 33.9614 15.2255 33.9614 15.2255C32.4614 15.4047 31.401 16.4859 30.8218 18.463C30.4906 19.5942 30.1718 21.2588 29.5906 24.3484C28.601 29.6047 26.3343 40.2172 25.4051 44.5359C24.8093 47.3047 23.401 47.688 21.9697 47.688C20.4697 47.688 18.9093 46.7047 17.2551 45.6672C16.8676 45.4234 15.5718 44.6338 15.5718 44.6338C12.0239 42.4817 8.48013 41.9651 4.61347 43.5067C3.77805 43.8401 2.95521 44.2134 2.17188 44.5905C2.70729 46.2696 3.37382 47.9222 4.1509 49.4743C5.00715 49.0535 5.90513 48.6359 6.8218 48.3651C8.14263 47.9755 9.4968 47.9547 10.8093 48.3942C12.0843 48.8213 13.2197 49.5776 14.351 50.288C16.4822 51.6276 18.8968 53.1463 21.9697 53.1463C26.5239 53.1463 29.7197 50.4276 30.7406 45.6859C31.5322 42.0109 33.2864 33.8067 34.4135 28.1484C34.4135 28.1484 37.301 42.0109 38.0905 45.6859C39.1114 50.4276 42.3093 53.1463 46.8635 53.1463C49.9364 53.1463 52.351 51.6276 54.4822 50.288C55.6135 49.5776 56.7489 48.8213 58.0239 48.3942C59.3343 47.9547 60.6906 47.9755 62.0114 48.3651C62.9281 48.6359 63.8247 49.0539 64.6809 49.4747C65.4601 47.9227 66.1249 46.2693 66.6603 44.5901C65.877 44.213 65.0551 43.8401 64.2197 43.5067Z" fill="white"/>
</g>
<defs>
<clipPath id="clip0_7_16026">
<rect width="500" height="68.75" fill="white"/>
</clipPath>
</defs>
</svg>
