<svg width="500" height="92" viewBox="0 0 500 92" fill="none" xmlns="http://www.w3.org/2000/svg">
<g clip-path="url(#clip0_17_18289)">
<path d="M212.464 16.7715C206.033 16.7715 199.353 18.5317 191.084 22.9783L195.678 34.3845C202.858 30.3586 208.79 28.5984 213.133 28.5984C218.061 28.5984 220.233 30.4435 220.233 32.8753V33.0413C220.233 34.7203 218.895 35.6429 215.639 35.9787L209.962 36.5654C195.762 38.0747 189.916 44.2815 189.916 52.8352V53.422C189.916 61.5587 196.597 67.9316 206.033 67.9316C212.248 67.9316 217.646 65.2968 220.927 60.6473L221.986 67.0939H234.847V37.8237C234.847 23.9857 226.914 16.7715 212.464 16.7715ZM211.211 56.7726C206.452 56.7726 204.196 54.9275 204.196 52.0751V51.909C204.196 49.3923 205.615 47.5473 210.792 46.7945L213.049 46.4587C216.345 45.9974 218.37 45.3885 220.233 44.2557V47.9679C220.233 53.588 216.723 56.7726 211.211 56.7726Z" fill="black"/>
<path d="M50.2596 58.5248L91.5274 17.1067L75.0644 0.585938L58.6014 17.1067L66.7961 25.3283L25.5468 66.7539L41.9914 83.2857L58.4544 66.7539L50.2596 58.5248Z" fill="#F04E23"/>
<path d="M42.1683 0.581923L0.905151 42.0176L17.3584 58.5397L58.6216 17.104L42.1683 0.581923Z" fill="#F04E23"/>
<path d="M99.7086 25.3456L58.4454 66.7812L74.8987 83.3033L116.162 41.8677L99.7086 25.3456Z" fill="#F04E23"/>
<path d="M257.8 0H243.185V67.0868H257.8V0Z" fill="black"/>
<path d="M165.354 16.7726C158.71 16.7726 153.374 19.7247 150.438 24.3484L149.321 17.6102H136.459V83.8483H151.073V60.8845C153.855 65.1909 159.118 67.9142 165.354 67.9142C177.047 67.9142 186.568 57.5154 186.568 43.1718V41.4928C186.568 27.1603 177.047 16.7578 165.354 16.7578M171.535 42.7585C171.535 50.3049 167.61 55.7589 161.095 55.7589C154.579 55.7589 150.655 50.3086 150.655 42.7585V41.9209C150.655 34.3709 154.579 28.9205 161.095 28.9205C167.61 28.9205 171.535 34.3709 171.535 41.9209V42.7585Z" fill="black"/>
<path d="M455.11 16.7715C440.161 16.7715 429.636 27.1703 429.636 41.5139V43.1929C429.636 57.5328 440.161 67.9353 455.11 67.9353C470.059 67.9353 480.583 57.5365 480.583 43.1929V41.5139C480.583 27.174 470.059 16.7715 455.11 16.7715ZM465.55 42.7722C465.55 50.3186 461.625 55.7726 455.11 55.7726C448.594 55.7726 444.67 50.3222 444.67 42.7722V41.9346C444.67 34.3845 448.594 28.9342 455.11 28.9342C461.625 28.9342 465.55 34.3845 465.55 41.9346V42.7722Z" fill="black"/>
<path d="M494.062 19.7941V19.5431C494.062 18.1187 492.978 17.1113 491.056 17.1113H487.716V24.8274H489.304V22.2259H491.067L492.394 24.8274H494.147L492.515 21.7757C493.508 21.4694 494.062 20.724 494.062 19.7941ZM489.3 18.5357H491.053C492.056 18.5357 492.471 18.8715 492.471 19.628V19.7129C492.471 20.3845 492.052 20.8015 491.053 20.8015H489.3V18.5357Z" fill="black"/>
<path d="M490.755 13C486.246 13 482.821 16.4392 482.821 20.967C482.821 25.4948 486.246 28.934 490.755 28.934C495.264 28.934 498.689 25.4948 498.689 20.967C498.689 16.4392 495.264 13 490.755 13ZM490.755 27.8417C486.83 27.8417 483.99 24.9893 483.99 20.9633C483.99 16.9374 486.83 14.0849 490.755 14.0849C494.68 14.0849 497.52 16.9374 497.52 20.9633C497.52 24.9893 494.68 27.8417 490.755 27.8417Z" fill="black"/>
<path d="M386.674 0H372.06V67.0868H386.674V0Z" fill="black"/>
<path d="M415.422 55.7582C411.163 55.7582 409.576 53.6622 409.576 49.1344V28.9198H426.781V17.5985H409.576V6.27344L394.961 8.45431V50.5588C394.961 62.0499 400.808 67.9209 412.501 67.9209C417.678 67.9209 423.775 66.3268 428.787 63.4743L424.613 53.0755C421.684 54.6696 417.594 55.7619 415.422 55.7619" fill="black"/>
<path d="M341.155 16.7715C334.724 16.7715 328.043 18.5317 319.775 22.9783L324.368 34.3845C331.549 30.3586 337.48 28.5984 341.824 28.5984C346.752 28.5984 348.923 30.4435 348.923 32.8753V33.0413C348.923 34.7203 347.586 35.6429 344.33 35.9787L338.652 36.5654C324.453 38.0747 318.606 44.2815 318.606 52.8352V53.422C318.606 61.5587 325.287 67.9316 334.724 67.9316C340.934 67.9316 346.336 65.2968 349.618 60.6473L350.676 67.0939H363.538V37.8237C363.538 23.9857 355.604 16.7715 341.155 16.7715ZM339.902 56.7726C335.139 56.7726 332.887 54.9275 332.887 52.0751V51.909C332.887 49.3923 334.305 47.5473 339.483 46.7945L341.739 46.4587C345.035 45.9974 347.06 45.3885 348.92 44.2557V47.9679C348.92 53.588 345.414 56.7726 339.902 56.7726Z" fill="black"/>
<path d="M289.782 16.7715C274.833 16.7715 264.308 27.1703 264.308 41.5139V43.1929C264.308 57.5328 274.833 67.9353 289.782 67.9353C304.73 67.9353 315.255 57.5365 315.255 43.1929V41.5139C315.251 27.174 304.73 16.7715 289.782 16.7715ZM300.218 42.7722C300.218 50.3186 296.293 55.7726 289.778 55.7726C283.262 55.7726 279.338 50.3222 279.338 42.7722V41.9346C279.338 34.3845 283.262 28.9342 289.778 28.9342C296.293 28.9342 300.218 34.3845 300.218 41.9346V42.7722Z" fill="black"/>
<path d="M358.39 91.0726L353.098 84.0614H353.061V91.0726H349.607V79.0059H353.355L358.537 85.8326H358.573V79.0059H362.028V91.0726H358.39Z" fill="black"/>
<path d="M370.222 86.2385V88.1205H377.572L377.204 91.0726H366.584V79.0059H377.204V81.9211H370.222V83.5816H375.735V86.2385H370.222Z" fill="black"/>
<path d="M384.921 91.0726V82.1056H380.512V79.0059H392.271L392.638 82.1056H388.229V91.0726H384.921Z" fill="black"/>
<path d="M410.277 87.3825L412.115 79.0059H415.79L412.482 91.0726H408.073L405.868 83.7661H405.5L403.295 91.0726H398.518L395.578 79.0059H399.253L401.458 87.3825L404.03 79.0059H407.705L409.91 87.3825H410.277Z" fill="black"/>
<path d="M418.362 85.0218C418.362 81.0881 421.022 78.623 425.23 78.623C429.438 78.623 432.102 81.0881 432.102 85.0218C432.102 88.9554 429.441 91.4205 425.23 91.4205C421.022 91.4205 418.362 88.9518 418.362 85.0218ZM428.512 85.0218C428.512 82.9368 427.31 81.6932 425.23 81.6932C423.15 81.6932 421.949 82.9368 421.949 85.0218C421.949 87.1104 423.15 88.3503 425.212 88.3503C427.292 88.3503 428.512 87.1067 428.512 85.0218Z" fill="black"/>
<path d="M436.001 79.0059H443.009C446.202 79.0059 447.768 80.5225 447.768 83.3344C447.768 85.2643 446.978 86.578 445.43 87.198L448.282 91.08H444.196L441.98 87.9065H439.61V91.08H436.001V79.0059ZM442.542 85.0761C443.744 85.0761 444.174 84.4045 444.174 83.4894C444.174 82.5742 443.744 81.9211 442.542 81.9211H439.606V85.0761H442.542Z" fill="black"/>
<path d="M460.622 84.7994L465.399 91.0357V91.0726H461.357L457.682 86.423H456.212V91.0726H452.537V79.0059H456.212V83.434H457.682L460.989 79.0059H465.399L460.622 84.7994Z" fill="black"/>
<path d="M468.339 90.2615V86.9515H468.357C470.367 87.97 472.326 88.4681 474.024 88.4681C475.314 88.4681 475.964 88.1581 475.964 87.553C475.964 86.9478 475.534 86.7928 472.958 86.3795C470.143 85.933 468.269 85.0843 468.269 82.6525C468.269 80.3941 470.246 78.6523 474.108 78.6523C475.655 78.6523 477.269 78.9808 478.764 79.6192V82.896L478.746 82.9145C477.32 82.0879 475.398 81.5676 473.851 81.5676C472.477 81.5676 471.929 81.896 471.929 82.4458C471.929 83.1543 472.771 83.2207 474.884 83.5861C477.699 84.0695 479.573 84.8629 479.573 87.4164C479.573 89.398 478.095 91.3833 473.855 91.3833C471.76 91.3833 470.092 90.9516 468.339 90.2615Z" fill="black"/>
</g>
<defs>
<clipPath id="clip0_17_18289">
<rect width="500" height="91.4213" fill="white"/>
</clipPath>
</defs>
</svg>
