<svg width="500" height="76" viewBox="0 0 500 76" fill="none" xmlns="http://www.w3.org/2000/svg">
<path fill-rule="evenodd" clip-rule="evenodd" d="M121.295 24.2083C116.301 24.1967 111.461 25.9395 107.621 29.1326V24.7083H95.1475V73.2954H108.121V42.2348C109.515 40.422 111.295 38.9419 113.332 37.9015C115.369 36.8612 117.611 36.2867 119.897 36.2197C121.667 36.1288 123.437 36.3941 125.102 37V24.5416C123.845 24.3211 122.571 24.2096 121.295 24.2083Z" fill="black"/>
<path fill-rule="evenodd" clip-rule="evenodd" d="M8.18143 58.4696C11.8859 61.6018 16.588 63.3067 21.439 63.2764C24.9314 63.2764 27.6246 61.5719 27.6246 59.1704C27.6246 51.856 4.17386 54.462 4.17386 38.8333C4.17386 29.5189 13.1549 23.7083 22.7345 23.7083C28.5517 23.7242 34.2381 25.4354 39.0981 28.6325L33.0299 38.0302C30.3515 35.9978 27.1098 34.844 23.7496 34.7272C20.1587 34.7272 17.1625 36.1287 17.1625 38.6325C17.1625 44.9431 40.617 42.4393 40.617 59.2689C40.617 68.587 31.5261 74.2954 21.3557 74.2954C14.3477 74.2273 7.53882 71.9559 1.89355 67.8029L8.18143 58.4696Z" fill="black"/>
<path fill-rule="evenodd" clip-rule="evenodd" d="M89.6096 48.5492C89.6096 35.0264 80.1399 23.7083 66.7535 23.7083C52.3823 23.7083 43.2005 35.5264 43.2005 49.0529C43.0579 52.4159 43.6172 55.7717 44.8428 58.9066C46.0684 62.0415 47.9334 64.8869 50.319 67.2614C52.7046 69.636 55.5586 71.4878 58.6991 72.6988C61.8397 73.9098 65.1981 74.4535 68.5603 74.2954C72.3006 74.3446 76.0081 73.5926 79.4336 72.0899C82.8592 70.5871 85.9233 68.3686 88.4202 65.5833L81.0338 58.1704C79.4869 59.8771 77.6112 61.2538 75.5192 62.2178C73.4272 63.1817 71.162 63.7132 68.8596 63.7802C65.6243 63.8855 62.4705 62.7541 60.0399 60.6163C57.6094 58.4785 56.0847 55.4949 55.7762 52.2726H89.3103C89.5168 51.0424 89.6169 49.7966 89.6096 48.5492ZM56.3747 42.7423C56.8402 40.3355 58.1324 38.167 60.0276 36.612C61.9229 35.0571 64.302 34.2135 66.7535 34.2272C69.1153 34.2307 71.3942 35.0988 73.1598 36.6676C74.9253 38.2364 76.0555 40.3973 76.3368 42.7423H56.3747Z" fill="black"/>
<path fill-rule="evenodd" clip-rule="evenodd" d="M156.023 54.3598L169.295 24.7083H182.773L160.515 73.2954H151.534L129.276 24.7083H142.75L156.023 54.3598Z" fill="black"/>
<path fill-rule="evenodd" clip-rule="evenodd" d="M193.666 1.89396C195.308 1.9238 196.904 2.4378 198.254 3.37143C199.605 4.30507 200.649 5.61674 201.257 7.14185C201.864 8.66695 202.008 10.3375 201.669 11.9439C201.331 13.5503 200.525 15.021 199.354 16.1713C198.183 17.3216 196.698 18.1004 195.086 18.4099C193.474 18.7193 191.806 18.5457 190.292 17.9107C188.778 17.2758 187.485 16.2078 186.576 14.8409C185.667 13.474 185.182 11.869 185.182 10.2273C185.181 9.12007 185.402 8.02392 185.83 7.00287C186.258 5.98182 186.886 5.05635 187.676 4.28051C188.466 3.50468 189.402 2.89404 190.431 2.48427C191.46 2.0745 192.559 1.87382 193.666 1.89396Z" fill="black"/>
<path d="M200.151 24.7083H187.178V73.2954H200.151V24.7083Z" fill="black"/>
<path fill-rule="evenodd" clip-rule="evenodd" d="M253.788 63.375C251.331 66.8872 248.033 69.7271 244.195 71.6349C240.357 73.5427 236.101 74.4575 231.818 74.2954C228.438 74.3811 225.076 73.7886 221.929 72.5528C218.782 71.317 215.914 69.4631 213.496 67.1006C211.077 64.738 209.157 61.9147 207.848 58.7975C206.539 55.6802 205.867 52.3322 205.874 48.9513C205.881 45.5703 206.565 42.225 207.886 39.1129C209.207 36.0007 211.139 33.1849 213.566 30.8318C215.994 28.4787 218.869 26.6359 222.02 25.4124C225.172 24.1889 228.537 23.6095 231.917 23.7083C235.825 23.6792 239.688 24.5387 243.215 26.2218C246.743 27.905 249.841 30.3678 252.277 33.4242L243.095 41.5379C241.814 39.7642 240.136 38.3148 238.195 37.3058C236.254 36.2968 234.104 35.7562 231.917 35.7273C230.177 35.7201 228.454 36.062 226.85 36.7326C225.245 37.4032 223.791 38.3889 222.574 39.6314C221.357 40.8739 220.401 42.3479 219.764 43.9663C219.127 45.5846 218.821 47.3143 218.864 49.053C218.806 50.8179 219.114 52.5756 219.768 54.2158C220.422 55.8561 221.407 57.3435 222.663 58.5848C223.919 59.8261 225.418 60.7944 227.066 61.429C228.714 62.0637 230.475 62.3509 232.239 62.2727C234.544 62.2268 236.803 61.6191 238.821 60.5022C240.838 59.3853 242.552 57.7931 243.814 55.8636L253.788 63.375Z" fill="black"/>
<path fill-rule="evenodd" clip-rule="evenodd" d="M300.917 65.5796C298.42 68.3651 295.356 70.5838 291.93 72.0865C288.505 73.5893 284.797 74.3412 281.057 74.2917C277.695 74.4483 274.338 73.9033 271.199 72.6916C268.06 71.4798 265.207 69.6278 262.823 67.2534C260.439 64.879 258.575 62.0342 257.35 58.9001C256.125 55.766 255.566 52.4112 255.708 49.0493C255.708 35.5228 264.89 23.7046 279.261 23.7046C292.632 23.7046 302.114 35.0228 302.114 48.5455C302.122 49.788 302.022 51.0288 301.814 52.2538H268.28C268.586 55.4768 270.108 58.4621 272.538 60.602C274.967 62.742 278.12 63.8759 281.356 63.7728C283.659 63.7052 285.924 63.1735 288.017 62.2095C290.11 61.2456 291.986 59.8693 293.534 58.1629L300.917 65.5796ZM288.841 42.7425C288.56 40.3978 287.431 38.2369 285.666 36.6681C283.901 35.0992 281.623 34.231 279.261 34.2273C276.81 34.2129 274.43 35.0562 272.535 36.6113C270.639 38.1664 269.347 40.3352 268.882 42.7425H288.841Z" fill="black"/>
<path fill-rule="evenodd" clip-rule="evenodd" d="M307.272 73.2955V24.7084H319.746V28.6137C323.588 25.428 328.426 23.692 333.416 23.7084C336.614 23.6994 339.774 24.395 342.672 25.7456C345.571 27.0962 348.136 29.0686 350.185 31.5228C353.917 36.383 355.696 42.463 355.174 48.5682V73.2955H342.2V47.5379C342.383 45.9003 342.219 44.2427 341.721 42.6722C341.222 41.1018 340.4 39.6533 339.307 38.4205C337.331 36.5923 334.712 35.62 332.022 35.7159C329.737 35.7834 327.495 36.3576 325.458 37.3972C323.422 38.4368 321.641 39.9158 320.246 41.7273V73.2955H307.272Z" fill="black"/>
<path fill-rule="evenodd" clip-rule="evenodd" d="M388.584 23.7083C382.891 23.6964 377.327 25.3947 372.611 28.5831C367.896 31.7716 364.247 36.303 362.138 41.59C360.028 46.8769 359.556 52.6757 360.782 58.2344C362.007 63.7931 364.875 68.8554 369.012 72.7651C369.982 73.6891 371.251 74.2353 372.589 74.3047C373.927 74.3742 375.246 73.9624 376.307 73.1439C379.807 70.5391 384.054 69.1323 388.417 69.1323C392.78 69.1323 397.027 70.5391 400.527 73.1439C401.598 73.9643 402.928 74.3724 404.275 74.2938C405.622 74.2153 406.896 73.6552 407.864 72.7158C411.969 68.8207 414.817 63.7884 416.043 58.2641C417.269 52.7398 416.817 46.9752 414.746 41.7092C412.674 36.4432 409.078 31.9158 404.416 28.7073C399.755 25.4988 394.242 23.7555 388.584 23.7007M388.417 66.2878C386.546 66.3384 384.685 66.0073 382.946 65.3146C381.207 64.6219 379.628 63.5823 378.304 62.2591C376.981 60.9359 375.941 59.3569 375.248 57.6184C374.555 55.88 374.223 54.0185 374.273 52.1477C374.273 48.3965 375.763 44.7989 378.416 42.1464C381.068 39.4939 384.666 38.0037 388.417 38.0037C392.168 38.0037 395.766 39.4939 398.418 42.1464C401.071 44.7989 402.561 48.3965 402.561 52.1477C402.611 54.0185 402.279 55.88 401.586 57.6184C400.893 59.3569 399.853 60.9359 398.529 62.2591C397.206 63.5823 395.627 64.6219 393.888 65.3146C392.149 66.0073 390.288 66.3384 388.417 66.2878Z" fill="#62D84E"/>
<path fill-rule="evenodd" clip-rule="evenodd" d="M442.379 73.2954H432.716L413.447 24.7083H426.402L436.966 52.4734L447.326 24.7083H458.152L468.417 52.4734L479.072 24.7083H492.031L472.762 73.2954H463.099L452.739 45.6287L442.379 73.2954Z" fill="black"/>
<path d="M492.178 67.8029H491.083V69.8598H490.151V64.231H492.424C492.662 64.23 492.898 64.2761 493.118 64.3668C493.338 64.4574 493.538 64.5907 493.707 64.759C493.875 64.9274 494.008 65.1274 494.099 65.3475C494.19 65.5676 494.236 65.8035 494.235 66.0416C494.232 66.3945 494.124 66.7386 493.925 67.03C493.726 67.3215 493.445 67.547 493.117 67.6779L494.398 69.8711H493.382L492.178 67.8029ZM491.083 66.9734H492.424C492.675 66.9734 492.916 66.8736 493.094 66.696C493.271 66.5184 493.371 66.2776 493.371 66.0264C493.371 65.7753 493.271 65.5344 493.094 65.3568C492.916 65.1792 492.675 65.0795 492.424 65.0795H491.095L491.083 66.9734Z" fill="black"/>
<path d="M492.045 61.9241C493.078 61.9234 494.088 62.2291 494.948 62.8026C495.807 63.3761 496.478 64.1917 496.874 65.1461C497.269 66.1005 497.373 67.1509 497.172 68.1644C496.971 69.1779 496.474 70.109 495.744 70.8399C495.013 71.5708 494.083 72.0686 493.069 72.2705C492.056 72.4723 491.005 72.3691 490.051 71.9739C489.096 71.5786 488.28 70.9091 487.706 70.05C487.132 69.191 486.825 68.1809 486.825 67.1476C486.827 65.7635 487.378 64.4367 488.356 63.4576C489.334 62.4786 490.661 61.9272 492.045 61.9241ZM492.045 61.0984C490.846 61.0984 489.675 61.4538 488.678 62.1198C487.681 62.7857 486.904 63.7323 486.446 64.8397C485.987 65.9471 485.867 67.1657 486.101 68.3414C486.335 69.517 486.912 70.5969 487.759 71.4445C488.607 72.2921 489.687 72.8693 490.863 73.1032C492.038 73.337 493.257 73.217 494.364 72.7583C495.472 72.2996 496.418 71.5227 497.084 70.5261C497.75 69.5294 498.106 68.3577 498.106 67.159C498.106 65.5516 497.467 64.0101 496.33 62.8735C495.194 61.7369 493.652 61.0984 492.045 61.0984Z" fill="black"/>
</svg>
