<svg width="500" height="99" viewBox="0 0 500 99" fill="none" xmlns="http://www.w3.org/2000/svg">
<g clip-path="url(#clip0_8_16059)">
<path fill-rule="evenodd" clip-rule="evenodd" d="M206.688 80.4062C189.813 80.4062 176.188 66.7812 176.188 49.9062C176.188 33.0312 189.813 19.375 206.688 19.375C223.563 19.375 237.188 33.0312 237.188 49.9062C237.188 66.7812 223.563 80.4062 206.688 80.4062ZM223.875 50C223.875 40.0625 216.188 32.0312 206.688 32.0312C197.188 32.0312 189.531 40.0625 189.531 50C189.531 59.9688 197.188 68 206.688 68C216.188 68 223.875 59.9688 223.875 50ZM127.125 20.7812H170.5V32.7187H139.781V43.625H165.406V55.5938H139.781V79.0312H127.125V20.7812ZM499.906 67.0625V79.1562H456.188V20.7812H499.562V32.7187H468.844V43.625H495.156V55.5938H468.844V67.0625H499.906ZM365.563 20.7812H378.219V79.0312H365.563V20.7812ZM432.844 20.7812H446.656L417.062 79.8438L387.5 20.7812H401.531L417.188 53.625L432.844 20.7812ZM303.281 20.7812H353.406V32.7187H334.594V79.0312H321.969V32.7187H303.156L303.281 20.7812ZM279.875 55.4688L297.031 79.0312H281.5L265.125 55.5938H260.375V79.1562H247.75V20.7812H277.656C287.281 20.7812 295.062 28.5625 295.062 38.1875C295.062 47.125 288.344 54.4375 279.875 55.4688ZM276.75 43.6562C279.75 43.6562 282.188 41.2187 282.188 38.1875C282.188 35.1875 279.75 32.75 276.75 32.75H260.25V43.6562H276.75Z" fill="black"/>
<path fill-rule="evenodd" clip-rule="evenodd" d="M98.5938 49.3125C98.5938 76.5938 76.5625 98.625 49.2812 98.75C42.8125 98.75 36.5312 97.4688 30.8438 95.1562V80.4062C36.3125 83.5625 42.5625 85.4062 49.2812 85.4062C69.25 85.4062 85.375 69.2812 85.375 49.3125C85.375 36.2188 78.2812 24.5938 67.75 18.3438V33.6562L30.9688 54.875V39.5625L67.75 18.2188C62.2812 15.0938 56.0312 13.2188 49.2812 13.2188C29.3438 13.2188 13.2188 29.3438 13.2188 49.3125C13.2188 62.4375 20.3125 74.0312 30.8438 80.3125L18.2188 87.625C7.0625 78.5625 0 64.75 0 49.3125C0 22.0625 22.1562 0 49.2812 0C76.5625 0 98.7188 22.0625 98.5938 49.3125ZM60.0938 63.4688L30.9688 80.3125V64.9688L60.0938 48.1562V63.4688Z" fill="#64BE49"/>
</g>
<defs>
<clipPath id="clip0_8_16059">
<rect width="500" height="98.75" fill="white"/>
</clipPath>
</defs>
</svg>
